<svg xmlns="http://www.w3.org/2000/svg" xmlns:xlink="http://www.w3.org/1999/xlink" width="40" zoomAndPan="magnify" viewBox="0 0 30 30.000001" height="40" preserveAspectRatio="xMidYMid meet" version="1.0"><defs><clipPath id="46d0ebd790"><path d="M 0.484375 0 L 29.515625 0 L 29.515625 29.03125 L 0.484375 29.03125 Z M 0.484375 0 " clip-rule="nonzero"/></clipPath><clipPath id="9351fc6b90"><path d="M 7.523438 8.636719 L 22.765625 8.636719 L 22.765625 23.878906 L 7.523438 23.878906 Z M 7.523438 8.636719 " clip-rule="nonzero"/></clipPath></defs><g clip-path="url(#46d0ebd790)"><path fill="#ea482f" d="M 15 0 C 6.984375 0 0.484375 6.5 0.484375 14.515625 C 0.484375 22.53125 6.984375 29.03125 15 29.03125 C 23.015625 29.03125 29.515625 22.53125 29.515625 14.515625 C 29.515625 6.5 23.015625 0 15 0 " fill-opacity="1" fill-rule="nonzero"/></g><path stroke-linecap="butt" transform="matrix(0.740124, 0, 0, 0.725806, 7.524069, 7.257527)" fill="none" stroke-linejoin="miter" d="M -0.000853208 0.000392914 L 20.598515 0.000392914 " stroke="#000000" stroke-width="1" stroke-opacity="1" stroke-miterlimit="4"/><g clip-path="url(#9351fc6b90)"><path fill="#000000" d="M 20.667969 23.640625 L 17.113281 20.085938 C 16.140625 20.722656 14.976562 21.097656 13.71875 21.097656 C 10.292969 21.097656 7.523438 18.320312 7.523438 14.894531 C 7.523438 11.476562 10.292969 8.699219 13.71875 8.699219 C 17.136719 8.699219 19.914062 11.476562 19.914062 14.894531 C 19.914062 16.089844 19.578125 17.207031 18.996094 18.148438 L 22.574219 21.726562 C 22.761719 21.910156 22.605469 22.371094 22.222656 22.75 L 21.691406 23.285156 C 21.308594 23.664062 20.851562 23.824219 20.667969 23.640625 Z M 17.855469 14.894531 C 17.855469 12.609375 16.003906 10.757812 13.71875 10.757812 C 11.433594 10.757812 9.578125 12.609375 9.578125 14.894531 C 9.578125 17.179688 11.433594 19.039062 13.71875 19.039062 C 16.003906 19.039062 17.855469 17.179688 17.855469 14.894531 Z M 17.855469 14.894531 " fill-opacity="1" fill-rule="nonzero"/></g></svg>